<?xml version="1.0" encoding="UTF-8" standalone="yes"?>
<svg  xmlns="http://www.w3.org/2000/svg"
      width="100" height="100"
      viewBox="0 0 100 100"
      >

    <metadata>
      <rdf:RDF xmlns:rdf="http://www.w3.org/1999/02/22-rdf-syntax-ns#"
               xmlns:dc="http://purl.org/dc/elements/1.1/"
               xmlns:cc="http://creativecommons.org/ns#">
        <cc:Work rdf:about="">
          <dc:title>mjyy logo</dc:title>
          <dc:creator>Hgnim</dc:creator>
          <dc:rights>Copyright (C) 2025 Hgnim, All rights reserved.</dc:rights>
          <cc:license rdf:resource="https://github.com/MJYY-MC/logo/blob/main/LICENSE"/>
        </cc:Work>
      </rdf:RDF>
    </metadata>

    <path
        d="
            M0 0
                L0 17 L16 27 L16 11
            L0 0

            M100 0
                L100 17 L84 27 L84 11
            L100 0

            M49 2
                L28 16 L40 24 L49 18
            L49 2

            M51 2
                L72 16 L60 24 L51 18
            L51 2

            M18 12
                L18 77 L32 69 L32 42
                L50 50
                L68 42 L68 69 L82 77 L82 12
                L50 33
            L18 12

            M67 71
                L50 82.3 L50 100 L81 79.5
            L67 71
        z
        "
        style="fill:#000;"
    />
</svg>
